<?xml version="1.0" standalone="no"?>
<!DOCTYPE svg PUBLIC "-//W3C//DTD SVG 20010904//EN"
 "http://www.w3.org/TR/2001/REC-SVG-20010904/DTD/svg10.dtd">
<svg version="1.0" xmlns="http://www.w3.org/2000/svg"
 width="150" height="150" viewBox="0 0 993 1125"
 preserveAspectRatio="xMidYMid meet">
<g transform="translate(0.000000,1125.000000) scale(0.100000,-0.100000)"
fill="#000000" stroke="none">
<path d="M2447 4696 c31 -15 60 -38 75 -59 12 -19 122 -287 243 -596 l220
-561 91 0 91 0 256 618 255 617 -50 3 c-28 2 -52 1 -55 -1 -2 -3 -89 -214
-193 -471 -104 -256 -193 -473 -197 -481 -7 -11 -46 80 -138 317 -70 183 -155
402 -187 486 l-60 152 -201 0 -202 0 52 -24z"/>
<path d="M3850 4697 c79 -39 80 -42 80 -422 0 -182 5 -369 11 -415 26 -213
143 -336 351 -370 35 -5 168 -10 296 -10 l232 0 0 44 0 44 -227 4 c-212 3
-231 5 -269 25 -104 55 -133 128 -141 356 l-6 157 232 0 231 0 0 40 0 40 -225
0 -225 0 0 170 c0 199 8 232 64 255 28 12 90 15 301 15 l265 0 0 45 0 45 -507
0 -508 -1 45 -22z"/>
<path d="M5475 4709 c-252 -39 -423 -190 -482 -425 -23 -94 -23 -304 0 -394
53 -201 184 -333 382 -385 198 -53 493 -14 658 85 l62 38 3 276 2 276 -185 0
c-102 0 -185 -4 -185 -8 0 -4 19 -14 43 -22 71 -25 77 -49 77 -287 l0 -203
-37 -18 c-102 -52 -251 -55 -347 -8 -139 68 -207 221 -207 466 -1 320 103 472
350 515 100 18 183 2 295 -55 44 -22 81 -39 82 -37 1 1 -1 31 -5 67 l-6 65
-106 27 c-120 30 -298 42 -394 27z"/>
<path d="M6502 4111 c-139 -335 -252 -614 -252 -620 0 -6 20 -11 48 -11 41 0
50 4 59 23 6 12 95 225 198 472 103 248 191 454 195 458 6 7 78 -167 364 -893
l22 -55 197 -3 c112 -1 197 1 197 7 0 4 -12 11 -27 14 -44 10 -91 43 -109 79
-10 18 -115 281 -234 583 l-215 550 -96 3 -96 3 -251 -610z"/>
</g>
</svg>
